<svg width="286" height="236" viewBox="0 0 286 236" fill="none" xmlns="http://www.w3.org/2000/svg">
<g filter="url(#filter0_d_1_572)">
<path d="M141.542 64.9256V64.197C141.542 63.5359 142.058 63 142.695 63C143.331 63 143.847 63.5359 143.847 64.197V64.9256C143.847 65.5868 143.331 66.1227 142.695 66.1227C142.058 66.1227 141.542 65.5867 141.542 64.9256ZM130.395 68.6683C130.609 69.0526 130.996 69.2674 131.395 69.2674C131.59 69.2674 131.788 69.2157 131.97 69.107C132.521 68.7766 132.71 68.0446 132.392 67.472L132.042 66.841C131.723 66.2683 131.018 66.072 130.467 66.4022C129.916 66.7326 129.727 67.4647 130.045 68.0372L130.395 68.6683ZM153.42 69.107C153.601 69.2158 153.799 69.2675 153.995 69.2675C154.393 69.2675 154.781 69.0527 154.994 68.6687L155.345 68.0378C155.663 67.4652 155.474 66.7331 154.923 66.4026C154.372 66.0723 153.667 66.2684 153.348 66.8409L152.998 67.4718C152.679 68.0443 152.868 68.7763 153.42 69.107ZM162.27 77.859C162.465 77.859 162.664 77.8073 162.845 77.6984L163.453 77.3341C164.004 77.0034 164.193 76.2712 163.874 75.6988C163.556 75.1263 162.851 74.9302 162.3 75.2609L161.692 75.6252C161.141 75.9559 160.952 76.6879 161.271 77.2605C161.484 77.6444 161.871 77.859 162.27 77.859ZM165.266 99.0884C163.769 102.169 159.587 104.239 154.858 104.239C151.617 104.239 148.58 103.268 146.516 101.605C145.333 102.447 144.085 102.989 142.848 103.155C142.792 103.162 142.735 103.165 142.681 103.164C142.635 103.164 142.588 103.161 142.542 103.155C141.305 102.989 140.056 102.447 138.874 101.605C136.81 103.268 133.773 104.239 130.532 104.239C125.803 104.239 121.62 102.169 120.124 99.0884C119.959 98.7494 119.959 98.3492 120.124 98.01C121.228 95.7365 123.753 94.0125 126.949 93.2652C125.291 90.8193 124.685 87.9291 125.436 85.4567C125.528 85.1541 125.732 84.9018 126.003 84.7553C127.897 83.7306 130.299 83.6564 132.637 84.5074C132.984 83.3132 133.531 82.2741 134.271 81.4641C134.524 81.187 134.89 81.0522 135.254 81.101C135.859 81.182 136.466 81.3529 137.067 81.6047C138.287 78.928 140.084 76.9319 142.214 75.917C142.519 75.7715 142.87 75.7715 143.175 75.917C145.304 76.9313 147.101 78.9261 148.321 81.6011C148.922 81.3514 149.53 81.1823 150.135 81.101C150.5 81.0522 150.866 81.187 151.119 81.4641C151.859 82.2741 152.405 83.3131 152.752 84.5071C155.091 83.6563 157.492 83.7307 159.386 84.7551C159.657 84.9017 159.861 85.154 159.953 85.4565C160.704 87.929 160.099 90.819 158.44 93.265C161.636 94.0122 164.162 95.7362 165.266 98.0097C165.431 98.3492 165.431 98.7494 165.266 99.0884ZM151.31 95.6928C152.561 95.3699 153.805 94.7047 154.9 93.7504C157.137 91.8011 158.309 88.963 157.875 86.6692C156.521 86.1231 154.832 86.2078 153.168 86.9013C153.328 89.1363 152.94 91.6644 151.981 94.1526C151.777 94.6816 151.553 95.1959 151.31 95.6928ZM139.088 82.771C140.416 83.7527 141.655 85.1115 142.692 86.7369C143.735 85.094 144.972 83.7374 146.297 82.7614C145.409 80.7694 144.139 79.2114 142.695 78.3505C141.249 79.2129 139.976 80.7745 139.088 82.771ZM130.489 93.7503C131.584 94.7047 132.828 95.3702 134.08 95.693C133.837 95.1958 133.613 94.6817 133.409 94.1524C132.45 91.6644 132.062 89.1361 132.222 86.9013C130.557 86.2075 128.869 86.1228 127.514 86.6689C127.08 88.9628 128.252 91.801 130.489 93.7503ZM137.053 100.018C136.556 99.4995 136.082 98.9269 135.638 98.3083C133.354 98.2678 130.971 97.2955 129.007 95.5843C128.925 95.5123 128.844 95.4397 128.763 95.3659C125.956 95.7271 123.603 96.9288 122.496 98.5489C123.842 100.515 127.024 101.845 130.531 101.845C133.021 101.845 135.403 101.163 137.053 100.018ZM142.247 90.9927C141.098 88.0113 139.178 85.5526 137.159 84.3117C137.102 84.284 137.049 84.252 136.999 84.2163C136.521 83.9385 136.039 83.7298 135.561 83.5989C135.084 84.3085 134.764 85.2163 134.604 86.2504C134.6 86.3134 134.591 86.3764 134.577 86.439C134.311 88.4361 134.629 90.8757 135.549 93.2632C136.477 95.6726 137.909 97.7405 139.49 99.1004C139.527 99.128 139.563 99.1582 139.597 99.191C140.454 99.9076 141.351 100.416 142.234 100.657C143.651 98.5537 143.679 94.7101 142.247 90.9927ZM149.841 93.263C150.76 90.8765 151.078 88.4376 150.812 86.4408C150.798 86.3767 150.789 86.3121 150.785 86.2476C150.625 85.2145 150.305 84.3076 149.828 83.5985C149.357 83.727 148.882 83.9309 148.41 84.2022C148.347 84.2489 148.279 84.2896 148.207 84.3233C146.639 85.2911 145.126 86.9952 143.986 89.1411C144.127 89.4558 144.261 89.7767 144.387 90.1035C145.694 93.4959 145.941 96.9627 145.184 99.6595C145.389 99.5145 145.594 99.3569 145.796 99.188C145.828 99.1576 145.861 99.1294 145.895 99.1034C147.478 97.7435 148.912 95.6742 149.841 93.263ZM162.894 98.5489C161.786 96.9288 159.433 95.7273 156.626 95.3659C156.546 95.4396 156.464 95.5125 156.382 95.5843C154.418 97.2952 152.036 98.2675 149.752 98.3082C149.307 98.9269 148.833 99.4994 148.337 100.018C149.987 101.163 152.368 101.845 154.858 101.845C158.365 101.845 161.548 100.515 162.894 98.5489ZM153.869 107.402C153.389 106.968 152.661 107.02 152.243 107.519C151.516 108.385 148.073 109.606 142.695 109.606C137.317 109.606 133.874 108.385 133.147 107.519C132.729 107.02 132.001 106.968 131.521 107.402C131.041 107.837 130.991 108.593 131.409 109.091C133.21 111.238 138.614 112 142.695 112C146.776 112 152.18 111.238 153.981 109.091C154.399 108.593 154.349 107.837 153.869 107.402ZM127.542 82.0744C128.154 82.2536 128.792 81.8832 128.964 81.2469C130.687 74.8957 136.333 70.4599 142.695 70.4599C149.056 70.4599 154.702 74.8957 156.425 81.2469C156.569 81.7748 157.031 82.1197 157.534 82.1197C157.638 82.1197 157.743 82.105 157.847 82.0744C158.46 81.8952 158.817 81.234 158.644 80.5977C156.643 73.2191 150.084 68.0658 142.695 68.0658C135.306 68.0658 128.747 73.2192 126.745 80.5977C126.573 81.234 126.929 81.8952 127.542 82.0744ZM142.695 107.977C143.685 107.977 147.008 107.867 148.191 106.456C148.609 105.958 148.558 105.202 148.078 104.767C147.601 104.336 146.877 104.385 146.459 104.877C146.196 105.125 144.831 105.583 142.695 105.583C140.558 105.583 139.193 105.125 138.931 104.876C138.512 104.385 137.789 104.336 137.311 104.768C136.831 105.202 136.781 105.958 137.199 106.456C138.382 107.867 141.705 107.977 142.695 107.977ZM121.937 77.3338L122.544 77.6982C122.725 77.8072 122.924 77.859 123.12 77.859C123.518 77.859 123.905 77.6445 124.119 77.2606C124.437 76.6882 124.249 75.956 123.697 75.6254L123.09 75.2609C122.539 74.9304 121.834 75.1259 121.515 75.6985C121.197 76.2708 121.386 77.003 121.937 77.3338Z" fill="white"/>
</g>
<defs>
<filter id="filter0_d_1_572" x="0" y="-53" width="285.39" height="289" filterUnits="userSpaceOnUse" color-interpolation-filters="sRGB">
<feFlood flood-opacity="0" result="BackgroundImageFix"/>
<feColorMatrix in="SourceAlpha" type="matrix" values="0 0 0 0 0 0 0 0 0 0 0 0 0 0 0 0 0 0 127 0" result="hardAlpha"/>
<feOffset dy="4"/>
<feGaussianBlur stdDeviation="60"/>
<feColorMatrix type="matrix" values="0 0 0 0 1 0 0 0 0 1 0 0 0 0 1 0 0 0 1 0"/>
<feBlend mode="normal" in2="BackgroundImageFix" result="effect1_dropShadow_1_572"/>
<feBlend mode="normal" in="SourceGraphic" in2="effect1_dropShadow_1_572" result="shape"/>
</filter>
</defs>
</svg>
